<?xml version="1.0" encoding="UTF-8" standalone="no"?>
<!-- Created with Inkscape (http://www.inkscape.org/) -->

<svg width="32" height="32" viewBox="0 0 8.4666662 8.4666662" version="1.1" id="svg1" xml:space="preserve"
  inkscape:version="1.3.2 (091e20e, 2023-11-25, custom)" sodipodi:docname="submark_BG.svg"
  xmlns:inkscape="http://www.inkscape.org/namespaces/inkscape"
  xmlns:sodipodi="http://sodipodi.sourceforge.net/DTD/sodipodi-0.dtd" xmlns="http://www.w3.org/2000/svg"
  xmlns:svg="http://www.w3.org/2000/svg">
  <sodipodi:namedview id="namedview1" pagecolor="#ffffff" bordercolor="#000000" borderopacity="0.25"
    inkscape:showpageshadow="2" inkscape:pageopacity="0.0" inkscape:pagecheckerboard="true" inkscape:deskcolor="#d1d1d1"
    inkscape:document-units="mm" inkscape:zoom="16.388211" inkscape:cx="10.525859" inkscape:cy="20.533052"
    inkscape:window-width="1920" inkscape:window-height="1009" inkscape:window-x="-8" inkscape:window-y="-8"
    inkscape:window-maximized="1" inkscape:current-layer="layer1" />
  <defs id="defs1" />
  <g inkscape:label="Layer 1" inkscape:groupmode="layer" id="layer1">
    <rect style="fill:#ffa694;stroke-width:0.264583;fill-opacity:1" id="rect1" width="8.4921303" height="8.4759855"
      x="-0.016144736" y="0" />
    <g id="a8ca0908-3f5b-4ec0-8258-dd4c79b37119" data-name="Layer 3"
      transform="matrix(0.04488609,0,0,0.04488609,1.0409794,0.75916235)">
      <path
        d="m 39,67.88 a 46.27,46.27 0 0 0 25.73,-32 v -0.22 c 0.92,-4.34 2.49,-14.53 -4.4,-14.82 a 7.77,7.77 0 0 0 -3.87,1 c -6.68,3.55 -10.05,11.9 -12.57,18.56 -5,13.13 -8.36,28.36 -6.91,42.47 0.3,3 1.7,9.65 5.94,9.31 4.24,-0.34 5.47,-5.4 6.34,-8.69 1.33,-5 2.52,-9.58 6.43,-13.3 a 2.38,2.38 0 0 1 1.73,-0.86 c 0.89,0.08 1.41,1 1.64,1.9 1.57,5.67 -4.56,17 1.76,20.84 2.18,1.31 5.15,0.46 6.95,-1.33 1.8,-1.79 2.23,-3.1 2.91,-5.55"
        style="fill:none;stroke:#ffffff;stroke-width:5.2975px;stroke-linecap:round;stroke-linejoin:bevel" id="path1" />
      <path
        d="m 75.27,68.78 a 29,29 0 0 0 -3.89,9.84 c -0.66,3.29 -1.12,7.12 0.15,10.32 A 4.73,4.73 0 0 0 77.08,92 c 4.24,-0.93 6.29,-6 7.5,-9.72 0.73,-2.21 1.32,-4.47 2.16,-6.64 A 16,16 0 0 1 89.2,70.9 c 1.38,-1.6 4.29,-2.19 5.64,-0.21 1.17,1.71 0.9,4 0.57,5.87 -0.42,2.42 -1,4.82 -1.63,7.2 -1.3,5.11 -3,10.07 -4.71,15 -1.53,4.52 -3.15,9 -5,13.41 a 63,63 0 0 1 -6.56,12.65 c -0.35,0.48 -0.72,1 -1.09,1.42 -1.31,1.59 -3.43,3.71 -5.61,4 a 4.14,4.14 0 0 1 -4.26,-3.35 13.19,13.19 0 0 1 0.54,-6.62 28.3,28.3 0 0 1 3.35,-6.91 c 6.49,-10.11 16.95,-16.87 28.08,-20.9 a 48.86,48.86 0 0 1 8.18,-2"
        style="fill:none;stroke:#ffffff;stroke-width:5.2975px;stroke-linecap:round;stroke-linejoin:bevel" id="path2" />
      <path
        d="m 106.77,90.47 c 7.32,-1 17.84,-0.58 22.57,5.82 4.73,6.4 3.91,15.16 1.07,22.08 -5.8,14.15 -20.32,22.83 -34.36,27.13 -28.64,8.75 -61.91,-2.56 -79.51,-26.72 -18.33,-25.15 -18.49,-62 -0.65,-87.43 16.86,-24.07 50.1,-35 77.83,-25 27.39,9.93 49.16,40.55 40.84,70.12 a 44.44,44.44 0 0 1 -5.43,12.14"
        style="fill:none;stroke:#ffffff;stroke-width:5.2975px;stroke-linecap:round;stroke-linejoin:bevel" id="path3" />
    </g>
  </g>
</svg>