<svg xmlns="http://www.w3.org/2000/svg" xml:space="preserve" width="32" height="32" viewBox="0 0 8.467 8.467"><path d="M-.016 0h8.492v8.476H-.016z" style="fill:#ffa694;stroke-width:.264583;fill-opacity:1"/><g data-name="Layer 3"><path d="M39 67.88a46.27 46.27 0 0 0 25.73-32v-.22c.92-4.34 2.49-14.53-4.4-14.82a7.77 7.77 0 0 0-3.87 1c-6.68 3.55-10.05 11.9-12.57 18.56-5 13.13-8.36 28.36-6.91 42.47.3 3 1.7 9.65 5.94 9.31 4.24-.34 5.47-5.4 6.34-8.69 1.33-5 2.52-9.58 6.43-13.3a2.38 2.38 0 0 1 1.73-.86c.89.08 1.41 1 1.64 1.9 1.57 5.67-4.56 17 1.76 20.84 2.18 1.31 5.15.46 6.95-1.33 1.8-1.79 2.23-3.1 2.91-5.55" style="fill:none;stroke:#fff;stroke-width:5.2975px;stroke-linecap:round;stroke-linejoin:bevel" transform="matrix(.04489 0 0 .04489 1.041 .76)"/><path d="M75.27 68.78a29 29 0 0 0-3.89 9.84c-.66 3.29-1.12 7.12.15 10.32A4.73 4.73 0 0 0 77.08 92c4.24-.93 6.29-6 7.5-9.72.73-2.21 1.32-4.47 2.16-6.64a16 16 0 0 1 2.46-4.74c1.38-1.6 4.29-2.19 5.64-.21 1.17 1.71.9 4 .57 5.87-.42 2.42-1 4.82-1.63 7.2-1.3 5.11-3 10.07-4.71 15-1.53 4.52-3.15 9-5 13.41a63 63 0 0 1-6.56 12.65c-.35.48-.72 1-1.09 1.42-1.31 1.59-3.43 3.71-5.61 4a4.14 4.14 0 0 1-4.26-3.35 13.19 13.19 0 0 1 .54-6.62 28.3 28.3 0 0 1 3.35-6.91c6.49-10.11 16.95-16.87 28.08-20.9a48.86 48.86 0 0 1 8.18-2" style="fill:none;stroke:#fff;stroke-width:5.2975px;stroke-linecap:round;stroke-linejoin:bevel" transform="matrix(.04489 0 0 .04489 1.041 .76)"/><path d="M106.77 90.47c7.32-1 17.84-.58 22.57 5.82s3.91 15.16 1.07 22.08c-5.8 14.15-20.32 22.83-34.36 27.13-28.64 8.75-61.91-2.56-79.51-26.72-18.33-25.15-18.49-62-.65-87.43 16.86-24.07 50.1-35 77.83-25 27.39 9.93 49.16 40.55 40.84 70.12a44.44 44.44 0 0 1-5.43 12.14" style="fill:none;stroke:#fff;stroke-width:5.2975px;stroke-linecap:round;stroke-linejoin:bevel" transform="matrix(.04489 0 0 .04489 1.041 .76)"/></g></svg>