<svg xmlns="http://www.w3.org/2000/svg" fill="none" aria-labelledby="vgen" viewBox="0 0 48 48">
  <path fill="#B8FF26" d="M22.5282 11.3021c5.1325-4.62132 13.0396-4.20693 17.661.9256l.3716.4127c2.1139 2.2905 3.9991 5.5966 3.9183 8.8571v-.0003c-.0264 1.1544-.3527 2.3343-.9969 3.3788l-.1234.1968c-.0679.1072-.1623.2545-.2811.4364-.2372.3629-.5741.8667-.9944 1.4651-.8324 1.1851-2.0315 2.797-3.466 4.4388-1.4066 1.6099-3.2012 3.4358-5.2456 4.909-1.9229 1.3856-4.8447 3.0289-8.3614 3.0289-3.4454 0-6.4014-1.5877-8.3585-2.9007-2.1108-1.4161-4.033-3.1835-5.5768-4.7644-1.5714-1.609-2.91256-3.1927-3.85292-4.3605-.47419-.5889-.8562-1.0841-1.12517-1.4398-.13468-.1781-.24161-.3219-.31819-.4259l-.1362-.1865c-2.16073-3.0028-1.48106-7.1922 1.52481-9.3552 3.00347-2.1612 7.19047-1.4786 9.35287 1.5237l.0008.0011.049.0668c.0453.0615.1186.1602.2174.2909.198.2618.4961.6487.8743 1.1184.2267.2815.4788.5886.7522.9128.193-3.158 1.5773-6.2452 4.1143-8.5296Z"/>
  <path fill="url(#a)" fill-rule="evenodd" d="M24.4754 13.572c3.3677-3.0323 8.5559-2.7604 11.5882.6073l.3884.4313.0047.0052c1.7615 1.9023 2.8441 4.187 2.7931 5.8704l-.0001.0037c-.0094.4113-.1252.8264-.3573 1.2031l-.0282.0453c-.016.0255-.0384.0613-.0672.1066-.058.0915-.1416.2221-.2489.3863-.2145.3282-.5243.7918-.9135 1.3458-.7754 1.1039-1.88 2.5872-3.1854 4.0812-1.2953 1.4824-2.8461 3.0424-4.5214 4.2496-1.6318 1.1759-3.6563 2.2175-5.8475 2.2175-2.166 0-4.2495-1.0221-5.9628-2.1715-1.7689-1.1868-3.4586-2.7258-4.8962-4.1979-1.4475-1.4822-2.6962-2.9554-3.58009-4.0531-.44339-.5506-.79848-1.0111-1.0447-1.3367-.12318-.1628-.21932-.2922-.28586-.3825-.03327-.0452-.05916-.0806-.07734-.1056l-.03049-.0421c-.21312-.3358-.3502-.5748-.4232-1.0358-.10802-.6823.06053-1.5536.82053-2.21.64538-.55 1.48985-.65 2.04985-.51.72.16 1.1391.53 1.4506.9484l.0007.0009.0011.0017.0146.0201c.0129.0177.0334.0457.061.0832.0554.0751.1394.1883.2498.3342.2208.2919.5458.7136.9548 1.2215.8209 1.0194 1.9662 2.3691 3.2754 3.7097 1.3191 1.3507 2.7488 2.6345 4.1357 3.5649 1.442.9675 2.5506 1.357 3.2866 1.357.544 0 1.2618-.2165 2.1351-.7217l.6085-.352-.5323-.4593c-.1681-.1451-.3291-.3024-.4818-.472l-1.9417-2.1565c-3.0323-3.3677-2.7604-8.5559.6073-11.5882Zm9.1065 7.4168c-.7018.9899-1.6538 2.2542-2.7501 3.5089l-.0252.0288-.3496.3992-3.0093-2.9687-.0098-.011c-1.2572-1.3962-1.1445-3.5471.2517-4.8042 1.3962-1.2572 3.5472-1.1444 4.8043.2517l.3883.4313c.3763.418.6984.8817.8583 1.3992.1648.5334.1487 1.0975-.1096 1.6787l-.0202.0455-.0288.0406Z" clip-rule="evenodd"/>
  <defs>
    <linearGradient id="a" x1="39.2515" x2="17.7667" y1="11.4644" y2="41.3309" gradientUnits="userSpaceOnUse">
      <stop stop-color="#10121A"/>
      <stop offset="1" stop-color="#0C090D"/>
    </linearGradient>
  </defs>
</svg>
