<svg version="1.1" baseProfile="tiny" id="Layer_1" xmlns="http://www.w3.org/2000/svg" xmlns:xlink="http://www.w3.org/1999/xlink"
	 x="0px" y="0px" viewBox="0 0 100 78" overflow="visible" xml:space="preserve">
<g>
	<path d="M34.95,29.18C37.72,13.04,46.78,3,61.03,0.61c14.03-2.35,24.61,3.68,32.63,14.87c3.6,5.02,6.46,10.45,6.34,16.78
		c-0.06,2.99-0.51,6.39-2.01,8.87c-6.8,11.24-14.85,21.54-25.58,29.38C58.62,80.6,44.71,80.6,30.29,70.54
		C19.35,62.91,10.56,53.1,2.9,42.32c-4.96-6.98-3.23-16.85,3.35-22.06c7-5.54,16.4-5.04,22.51,1.35
		C30.87,23.82,32.65,26.34,34.95,29.18z M55.71,50.36c-3.68,2.88-7.43,3.51-11.46,1.14c-1.71-1.01-3.45-2.01-5.03-3.21
		c-7.7-5.84-13.87-13.14-19.72-20.75c-2.26-2.94-5.75-3.57-8.42-1.63c-2.92,2.12-3.55,5.59-1.26,8.68
		c6.86,9.25,14.4,17.88,23.87,24.58c11.58,8.19,21.22,7.79,32.16-1.16c8.2-6.71,14.6-14.98,20.21-23.86
		c0.86-1.36,1.03-3.46,0.82-5.13c-0.71-5.6-4.02-9.87-7.76-13.84c-7.86-8.33-20.54-9.01-28.8-1.57c-8.55,7.7-9.2,20.49-1.46,29.25
		C51.04,45.33,53.29,47.72,55.71,50.36z"/>
	<path d="M65.13,42.17c-2.84-2.92-5.52-5.43-7.91-8.2c-2.5-2.89-2.22-7.52,0.32-10.47c2.64-3.08,7.25-4.11,10.55-1.85
		c4.47,3.06,8.21,7.66,2.91,13.31C68.97,37.11,67.24,39.55,65.13,42.17z"/>
</g>
</svg>
